<?xml version="1.0" encoding="UTF-8" standalone="no"?>
<!DOCTYPE svg PUBLIC "-//W3C//DTD SVG 1.1//EN"
 "http://www.w3.org/Graphics/SVG/1.1/DTD/svg11.dtd">
<!-- Generated by graphviz version 2.46.0 (20210119.1425)
 -->
<!-- Title: dependencies Pages: 1 -->
<svg width="6966pt" height="284pt"
 viewBox="0.00 0.00 6966.00 284.00" xmlns="http://www.w3.org/2000/svg" xmlns:xlink="http://www.w3.org/1999/xlink">
<g id="graph0" class="graph" transform="scale(1 1) rotate(0) translate(4 280)">
<title>dependencies</title>
<polygon fill="white" stroke="transparent" points="-4,4 -4,-280 6962,-280 6962,4 -4,4"/>
<text text-anchor="start" x="3458.01" y="-42.4" font-family="sans-serif" font-weight="bold" font-size="14.00">Legend</text>
<polygon fill="#ffffb3" stroke="transparent" points="3245,-10 3245,-30 3265,-30 3265,-10 3245,-10"/>
<text text-anchor="start" x="3268.63" y="-15.4" font-family="sans-serif" font-size="14.00"> &#160;Declarations</text>
<polygon fill="#8dd3c7" stroke="transparent" points="3358,-10 3358,-30 3378,-30 3378,-10 3358,-10"/>
<text text-anchor="start" x="3381.73" y="-15.4" font-family="sans-serif" font-size="14.00"> &#160;Module</text>
<polygon fill="#80b1d3" stroke="transparent" points="3444,-10 3444,-30 3464,-30 3464,-10 3444,-10"/>
<text text-anchor="start" x="3467.78" y="-15.4" font-family="sans-serif" font-size="14.00"> &#160;Bootstrap</text>
<polygon fill="#fdb462" stroke="transparent" points="3541,-10 3541,-30 3561,-30 3561,-10 3541,-10"/>
<text text-anchor="start" x="3564.67" y="-15.4" font-family="sans-serif" font-size="14.00"> &#160;Providers</text>
<polygon fill="#fb8072" stroke="transparent" points="3637,-10 3637,-30 3657,-30 3657,-10 3637,-10"/>
<text text-anchor="start" x="3660.73" y="-15.4" font-family="sans-serif" font-size="14.00"> &#160;Exports</text>
<g id="clust1" class="cluster">
<title>cluster_AppModule</title>
<polygon fill="none" stroke="black" stroke-dasharray="1,5" points="8,-70 8,-268 6950,-268 6950,-70 8,-70"/>
</g>
<g id="clust2" class="cluster">
<title>cluster_AppModule_declarations</title>
<polygon fill="none" stroke="black" points="4744,-78 4744,-130 6942,-130 6942,-78 4744,-78"/>
</g>
<g id="clust20" class="cluster">
<title>cluster_AppModule_providers</title>
<polygon fill="none" stroke="black" points="2556,-78 2556,-130 4736,-130 4736,-78 2556,-78"/>
</g>
<g id="clust17" class="cluster">
<title>cluster_AppModule_imports</title>
<polygon fill="none" stroke="black" points="16,-78 16,-130 2548,-130 2548,-78 16,-78"/>
</g>
<g id="clust19" class="cluster">
<title>cluster_AppModule_bootstrap</title>
<polygon fill="none" stroke="black" points="3203,-208 3203,-260 3327,-260 3327,-208 3203,-208"/>
</g>
<!-- AppComponent -->
<g id="node1" class="node">
<title>AppComponent</title>
<polygon fill="#ffffb3" stroke="black" points="6933.94,-122 6828.06,-122 6828.06,-86 6933.94,-86 6933.94,-122"/>
<text text-anchor="middle" x="6881" y="-99.8" font-family="Times,serif" font-size="14.00">AppComponent</text>
</g>
<!-- AppModule -->
<g id="node15" class="node">
<title>AppModule</title>
<polygon fill="#8dd3c7" stroke="black" points="3306.66,-187 3303.66,-191 3282.66,-191 3279.66,-187 3223.34,-187 3223.34,-151 3306.66,-151 3306.66,-187"/>
<text text-anchor="middle" x="3265" y="-164.8" font-family="Times,serif" font-size="14.00">AppModule</text>
</g>
<!-- AppComponent&#45;&gt;AppModule -->
<g id="edge1" class="edge">
<title>AppComponent&#45;&gt;AppModule</title>
<path fill="none" stroke="black" d="M6881,-122.2C6881,-146.36 6881,-186 6881,-186 6881,-186 3316.86,-186 3316.86,-186"/>
<polygon fill="black" stroke="black" points="3316.86,-182.5 3306.86,-186 3316.86,-189.5 3316.86,-182.5"/>
</g>
<!-- HeaderComponent -->
<g id="node2" class="node">
<title>HeaderComponent</title>
<polygon fill="#ffffb3" stroke="black" points="6809.74,-122 6688.26,-122 6688.26,-86 6809.74,-86 6809.74,-122"/>
<text text-anchor="middle" x="6749" y="-99.8" font-family="Times,serif" font-size="14.00">HeaderComponent</text>
</g>
<!-- HeaderComponent&#45;&gt;AppModule -->
<g id="edge2" class="edge">
<title>HeaderComponent&#45;&gt;AppModule</title>
<path fill="none" stroke="black" d="M6749,-122.15C6749,-145.76 6749,-184 6749,-184 6749,-184 3316.86,-184 3316.86,-184"/>
<polygon fill="black" stroke="black" points="3316.86,-180.5 3306.86,-184 3316.86,-187.5 3316.86,-180.5"/>
</g>
<!-- CharactersPageComponent -->
<g id="node3" class="node">
<title>CharactersPageComponent</title>
<polygon fill="#ffffb3" stroke="black" points="6670.4,-122 6501.6,-122 6501.6,-86 6670.4,-86 6670.4,-122"/>
<text text-anchor="middle" x="6586" y="-99.8" font-family="Times,serif" font-size="14.00">CharactersPageComponent</text>
</g>
<!-- CharactersPageComponent&#45;&gt;AppModule -->
<g id="edge3" class="edge">
<title>CharactersPageComponent&#45;&gt;AppModule</title>
<path fill="none" stroke="black" d="M6586,-122.09C6586,-145.13 6586,-182 6586,-182 6586,-182 3316.69,-182 3316.69,-182"/>
<polygon fill="black" stroke="black" points="3316.69,-178.5 3306.69,-182 3316.69,-185.5 3316.69,-178.5"/>
</g>
<!-- ComicsPageComponent -->
<g id="node4" class="node">
<title>ComicsPageComponent</title>
<polygon fill="#ffffb3" stroke="black" points="6483.82,-122 6332.18,-122 6332.18,-86 6483.82,-86 6483.82,-122"/>
<text text-anchor="middle" x="6408" y="-99.8" font-family="Times,serif" font-size="14.00">ComicsPageComponent</text>
</g>
<!-- ComicsPageComponent&#45;&gt;AppModule -->
<g id="edge4" class="edge">
<title>ComicsPageComponent&#45;&gt;AppModule</title>
<path fill="none" stroke="black" d="M6408,-122.01C6408,-144.49 6408,-180 6408,-180 6408,-180 3316.76,-180 3316.76,-180"/>
<polygon fill="black" stroke="black" points="3316.76,-176.5 3306.76,-180 3316.76,-183.5 3316.76,-176.5"/>
</g>
<!-- CreatorPageComponent -->
<g id="node5" class="node">
<title>CreatorPageComponent</title>
<polygon fill="#ffffb3" stroke="black" points="6314.02,-122 6163.98,-122 6163.98,-86 6314.02,-86 6314.02,-122"/>
<text text-anchor="middle" x="6239" y="-99.8" font-family="Times,serif" font-size="14.00">CreatorPageComponent</text>
</g>
<!-- CreatorPageComponent&#45;&gt;AppModule -->
<g id="edge5" class="edge">
<title>CreatorPageComponent&#45;&gt;AppModule</title>
<path fill="none" stroke="black" d="M6239,-122.29C6239,-144.21 6239,-178 6239,-178 6239,-178 3316.76,-178 3316.76,-178"/>
<polygon fill="black" stroke="black" points="3316.76,-174.5 3306.76,-178 3316.76,-181.5 3316.76,-174.5"/>
</g>
<!-- HomeComponent -->
<g id="node6" class="node">
<title>HomeComponent</title>
<polygon fill="#ffffb3" stroke="black" points="6145.55,-122 6030.45,-122 6030.45,-86 6145.55,-86 6145.55,-122"/>
<text text-anchor="middle" x="6088" y="-99.8" font-family="Times,serif" font-size="14.00">HomeComponent</text>
</g>
<!-- HomeComponent&#45;&gt;AppModule -->
<g id="edge6" class="edge">
<title>HomeComponent&#45;&gt;AppModule</title>
<path fill="none" stroke="black" d="M6088,-122.17C6088,-143.5 6088,-176 6088,-176 6088,-176 3316.82,-176 3316.82,-176"/>
<polygon fill="black" stroke="black" points="3316.82,-172.5 3306.82,-176 3316.82,-179.5 3316.82,-172.5"/>
</g>
<!-- SeriesPageComponent -->
<g id="node7" class="node">
<title>SeriesPageComponent</title>
<polygon fill="#ffffb3" stroke="black" points="6012.25,-122 5869.75,-122 5869.75,-86 6012.25,-86 6012.25,-122"/>
<text text-anchor="middle" x="5941" y="-99.8" font-family="Times,serif" font-size="14.00">SeriesPageComponent</text>
</g>
<!-- SeriesPageComponent&#45;&gt;AppModule -->
<g id="edge7" class="edge">
<title>SeriesPageComponent&#45;&gt;AppModule</title>
<path fill="none" stroke="black" d="M5941,-122.03C5941,-142.77 5941,-174 5941,-174 5941,-174 3316.76,-174 3316.76,-174"/>
<polygon fill="black" stroke="black" points="3316.76,-170.5 3306.76,-174 3316.76,-177.5 3316.76,-170.5"/>
</g>
<!-- ComicsComponent -->
<g id="node8" class="node">
<title>ComicsComponent</title>
<polygon fill="#ffffb3" stroke="black" points="5852.11,-122 5727.89,-122 5727.89,-86 5852.11,-86 5852.11,-122"/>
<text text-anchor="middle" x="5790" y="-99.8" font-family="Times,serif" font-size="14.00">ComicsComponent</text>
</g>
<!-- ComicsComponent&#45;&gt;AppModule -->
<g id="edge8" class="edge">
<title>ComicsComponent&#45;&gt;AppModule</title>
<path fill="none" stroke="black" d="M5790,-122.22C5790,-142.37 5790,-172 5790,-172 5790,-172 3316.72,-172 3316.72,-172"/>
<polygon fill="black" stroke="black" points="3316.72,-168.5 3306.72,-172 3316.72,-175.5 3316.72,-168.5"/>
</g>
<!-- CharacterDetailComponent -->
<g id="node9" class="node">
<title>CharacterDetailComponent</title>
<polygon fill="#ffffb3" stroke="black" points="5709.95,-122 5540.05,-122 5540.05,-86 5709.95,-86 5709.95,-122"/>
<text text-anchor="middle" x="5625" y="-99.8" font-family="Times,serif" font-size="14.00">CharacterDetailComponent</text>
</g>
<!-- CharacterDetailComponent&#45;&gt;AppModule -->
<g id="edge9" class="edge">
<title>CharacterDetailComponent&#45;&gt;AppModule</title>
<path fill="none" stroke="black" d="M5625,-122.03C5625,-141.58 5625,-170 5625,-170 5625,-170 3316.71,-170 3316.71,-170"/>
<polygon fill="black" stroke="black" points="3316.71,-166.5 3306.71,-170 3316.71,-173.5 3316.71,-166.5"/>
</g>
<!-- ComicDetailComponent -->
<g id="node10" class="node">
<title>ComicDetailComponent</title>
<polygon fill="#ffffb3" stroke="black" points="5522.37,-122 5369.63,-122 5369.63,-86 5522.37,-86 5522.37,-122"/>
<text text-anchor="middle" x="5446" y="-99.8" font-family="Times,serif" font-size="14.00">ComicDetailComponent</text>
</g>
<!-- ComicDetailComponent&#45;&gt;AppModule -->
<g id="edge10" class="edge">
<title>ComicDetailComponent&#45;&gt;AppModule</title>
<path fill="none" stroke="black" d="M5446,-122.11C5446,-141.34 5446,-169 5446,-169 5446,-169 3317.1,-169 3317.1,-169"/>
<polygon fill="black" stroke="black" points="3317.1,-165.5 3307.1,-169 3317.1,-172.5 3317.1,-165.5"/>
</g>
<!-- CharacterComponent -->
<g id="node11" class="node">
<title>CharacterComponent</title>
<polygon fill="#ffffb3" stroke="black" points="5351.74,-122 5216.26,-122 5216.26,-86 5351.74,-86 5351.74,-122"/>
<text text-anchor="middle" x="5284" y="-99.8" font-family="Times,serif" font-size="14.00">CharacterComponent</text>
</g>
<!-- CharacterComponent&#45;&gt;AppModule -->
<g id="edge11" class="edge">
<title>CharacterComponent&#45;&gt;AppModule</title>
<path fill="none" stroke="black" d="M5284,-122.22C5284,-140.83 5284,-167 5284,-167 5284,-167 3316.71,-167 3316.71,-167"/>
<polygon fill="black" stroke="black" points="3316.71,-163.5 3306.71,-167 3316.71,-170.5 3316.71,-163.5"/>
</g>
<!-- CreatorDetailComponent -->
<g id="node12" class="node">
<title>CreatorDetailComponent</title>
<polygon fill="#ffffb3" stroke="black" points="5197.52,-122 5040.48,-122 5040.48,-86 5197.52,-86 5197.52,-122"/>
<text text-anchor="middle" x="5119" y="-99.8" font-family="Times,serif" font-size="14.00">CreatorDetailComponent</text>
</g>
<!-- CreatorDetailComponent&#45;&gt;AppModule -->
<g id="edge12" class="edge">
<title>CreatorDetailComponent&#45;&gt;AppModule</title>
<path fill="none" stroke="black" d="M5119,-122.3C5119,-140.27 5119,-165 5119,-165 5119,-165 3316.76,-165 3316.76,-165"/>
<polygon fill="black" stroke="black" points="3316.76,-161.5 3306.76,-165 3316.76,-168.5 3316.76,-161.5"/>
</g>
<!-- SerieComponent -->
<g id="node13" class="node">
<title>SerieComponent</title>
<polygon fill="#ffffb3" stroke="black" points="5022.1,-122 4911.9,-122 4911.9,-86 5022.1,-86 5022.1,-122"/>
<text text-anchor="middle" x="4967" y="-99.8" font-family="Times,serif" font-size="14.00">SerieComponent</text>
</g>
<!-- SerieComponent&#45;&gt;AppModule -->
<g id="edge13" class="edge">
<title>SerieComponent&#45;&gt;AppModule</title>
<path fill="none" stroke="black" d="M4967,-122.02C4967,-139.37 4967,-163 4967,-163 4967,-163 3317.07,-163 3317.07,-163"/>
<polygon fill="black" stroke="black" points="3317.07,-159.5 3307.07,-163 3317.07,-166.5 3317.07,-159.5"/>
</g>
<!-- CardDetailComponent -->
<g id="node14" class="node">
<title>CardDetailComponent</title>
<polygon fill="#ffffb3" stroke="black" points="4894.25,-122 4751.75,-122 4751.75,-86 4894.25,-86 4894.25,-122"/>
<text text-anchor="middle" x="4823" y="-99.8" font-family="Times,serif" font-size="14.00">CardDetailComponent</text>
</g>
<!-- CardDetailComponent&#45;&gt;AppModule -->
<g id="edge14" class="edge">
<title>CardDetailComponent&#45;&gt;AppModule</title>
<path fill="none" stroke="black" d="M4823,-122.04C4823,-138.73 4823,-161 4823,-161 4823,-161 3316.67,-161 3316.67,-161"/>
<polygon fill="black" stroke="black" points="3316.67,-157.5 3306.67,-161 3316.67,-164.5 3316.67,-157.5"/>
</g>
<!-- AppComponent  -->
<g id="node35" class="node">
<title>AppComponent </title>
<polygon fill="#80b1d3" stroke="black" points="3319.44,-252 3210.56,-252 3210.56,-216 3319.44,-216 3319.44,-252"/>
<text text-anchor="middle" x="3265" y="-229.8" font-family="Times,serif" font-size="14.00">AppComponent </text>
</g>
<!-- AppModule&#45;&gt;AppComponent  -->
<g id="edge34" class="edge">
<title>AppModule&#45;&gt;AppComponent </title>
<path fill="none" stroke="black" stroke-dasharray="1,5" d="M3265,-187.11C3265,-187.11 3265,-205.99 3265,-205.99"/>
<polygon fill="black" stroke="black" points="3261.5,-205.99 3265,-215.99 3268.5,-205.99 3261.5,-205.99"/>
</g>
<!-- BrowserModule -->
<g id="node16" class="node">
<title>BrowserModule</title>
<polygon fill="#8dd3c7" stroke="black" points="2540.47,-122 2537.47,-126 2516.47,-126 2513.47,-122 2433.53,-122 2433.53,-86 2540.47,-86 2540.47,-122"/>
<text text-anchor="middle" x="2487" y="-99.8" font-family="Times,serif" font-size="14.00">BrowserModule</text>
</g>
<!-- BrowserModule&#45;&gt;AppModule -->
<g id="edge15" class="edge">
<title>BrowserModule&#45;&gt;AppModule</title>
<path fill="none" stroke="black" d="M2487,-122.12C2487,-136.78 2487,-155 2487,-155 2487,-155 3213.17,-155 3213.17,-155"/>
<polygon fill="black" stroke="black" points="3213.17,-158.5 3223.17,-155 3213.17,-151.5 3213.17,-158.5"/>
</g>
<!-- HttpClientModule -->
<g id="node17" class="node">
<title>HttpClientModule</title>
<polygon fill="#8dd3c7" stroke="black" points="2415.16,-122 2412.16,-126 2391.16,-126 2388.16,-122 2296.84,-122 2296.84,-86 2415.16,-86 2415.16,-122"/>
<text text-anchor="middle" x="2356" y="-99.8" font-family="Times,serif" font-size="14.00">HttpClientModule</text>
</g>
<!-- HttpClientModule&#45;&gt;AppModule -->
<g id="edge16" class="edge">
<title>HttpClientModule&#45;&gt;AppModule</title>
<path fill="none" stroke="black" d="M2356,-122.24C2356,-137.57 2356,-157 2356,-157 2356,-157 3213.28,-157 3213.28,-157"/>
<polygon fill="black" stroke="black" points="3213.28,-160.5 3223.28,-157 3213.28,-153.5 3213.28,-160.5"/>
</g>
<!-- BrowserAnimationsModule -->
<g id="node18" class="node">
<title>BrowserAnimationsModule</title>
<polygon fill="#8dd3c7" stroke="black" points="2279.3,-122 2276.3,-126 2255.3,-126 2252.3,-122 2106.7,-122 2106.7,-86 2279.3,-86 2279.3,-122"/>
<text text-anchor="middle" x="2193" y="-99.8" font-family="Times,serif" font-size="14.00">BrowserAnimationsModule</text>
</g>
<!-- BrowserAnimationsModule&#45;&gt;AppModule -->
<g id="edge17" class="edge">
<title>BrowserAnimationsModule&#45;&gt;AppModule</title>
<path fill="none" stroke="black" d="M2193,-122.01C2193,-138.05 2193,-159 2193,-159 2193,-159 3213.31,-159 3213.31,-159"/>
<polygon fill="black" stroke="black" points="3213.31,-162.5 3223.31,-159 3213.31,-155.5 3213.31,-162.5"/>
</g>
<!-- MatCardModule -->
<g id="node19" class="node">
<title>MatCardModule</title>
<polygon fill="#8dd3c7" stroke="black" points="2088.81,-122 2085.81,-126 2064.81,-126 2061.81,-122 1979.19,-122 1979.19,-86 2088.81,-86 2088.81,-122"/>
<text text-anchor="middle" x="2034" y="-99.8" font-family="Times,serif" font-size="14.00">MatCardModule</text>
</g>
<!-- MatCardModule&#45;&gt;AppModule -->
<g id="edge18" class="edge">
<title>MatCardModule&#45;&gt;AppModule</title>
<path fill="none" stroke="black" d="M2034,-122.03C2034,-138.4 2034,-160 2034,-160 2034,-160 3213.34,-160 3213.34,-160"/>
<polygon fill="black" stroke="black" points="3213.34,-163.5 3223.34,-160 3213.34,-156.5 3213.34,-163.5"/>
</g>
<!-- MatPaginatorModule -->
<g id="node20" class="node">
<title>MatPaginatorModule</title>
<polygon fill="#8dd3c7" stroke="black" points="1960.75,-122 1957.75,-126 1936.75,-126 1933.75,-122 1825.25,-122 1825.25,-86 1960.75,-86 1960.75,-122"/>
<text text-anchor="middle" x="1893" y="-99.8" font-family="Times,serif" font-size="14.00">MatPaginatorModule</text>
</g>
<!-- MatPaginatorModule&#45;&gt;AppModule -->
<g id="edge19" class="edge">
<title>MatPaginatorModule&#45;&gt;AppModule</title>
<path fill="none" stroke="black" d="M1893,-122.03C1893,-139.06 1893,-162 1893,-162 1893,-162 3213.19,-162 3213.19,-162"/>
<polygon fill="black" stroke="black" points="3213.19,-165.5 3223.19,-162 3213.19,-158.5 3213.19,-165.5"/>
</g>
<!-- MatTableModule -->
<g id="node21" class="node">
<title>MatTableModule</title>
<polygon fill="#8dd3c7" stroke="black" points="1806.97,-122 1803.97,-126 1782.97,-126 1779.97,-122 1693.03,-122 1693.03,-86 1806.97,-86 1806.97,-122"/>
<text text-anchor="middle" x="1750" y="-99.8" font-family="Times,serif" font-size="14.00">MatTableModule</text>
</g>
<!-- MatTableModule&#45;&gt;AppModule -->
<g id="edge20" class="edge">
<title>MatTableModule&#45;&gt;AppModule</title>
<path fill="none" stroke="black" d="M1750,-122C1750,-139.68 1750,-164 1750,-164 1750,-164 3213.3,-164 3213.3,-164"/>
<polygon fill="black" stroke="black" points="3213.3,-167.5 3223.3,-164 3213.3,-160.5 3213.3,-167.5"/>
</g>
<!-- MatFormFieldModule -->
<g id="node22" class="node">
<title>MatFormFieldModule</title>
<polygon fill="#8dd3c7" stroke="black" points="1674.71,-122 1671.71,-126 1650.71,-126 1647.71,-122 1533.29,-122 1533.29,-86 1674.71,-86 1674.71,-122"/>
<text text-anchor="middle" x="1604" y="-99.8" font-family="Times,serif" font-size="14.00">MatFormFieldModule</text>
</g>
<!-- MatFormFieldModule&#45;&gt;AppModule -->
<g id="edge21" class="edge">
<title>MatFormFieldModule&#45;&gt;AppModule</title>
<path fill="none" stroke="black" d="M1604,-122.27C1604,-140.56 1604,-166 1604,-166 1604,-166 3213.11,-166 3213.11,-166"/>
<polygon fill="black" stroke="black" points="3213.11,-169.5 3223.11,-166 3213.11,-162.5 3213.11,-169.5"/>
</g>
<!-- MatToolbarModule -->
<g id="node23" class="node">
<title>MatToolbarModule</title>
<polygon fill="#8dd3c7" stroke="black" points="1515.42,-122 1512.42,-126 1491.42,-126 1488.42,-122 1388.58,-122 1388.58,-86 1515.42,-86 1515.42,-122"/>
<text text-anchor="middle" x="1452" y="-99.8" font-family="Times,serif" font-size="14.00">MatToolbarModule</text>
</g>
<!-- MatToolbarModule&#45;&gt;AppModule -->
<g id="edge22" class="edge">
<title>MatToolbarModule&#45;&gt;AppModule</title>
<path fill="none" stroke="black" d="M1452,-122.17C1452,-141.09 1452,-168 1452,-168 1452,-168 3213.29,-168 3213.29,-168"/>
<polygon fill="black" stroke="black" points="3213.29,-171.5 3223.29,-168 3213.29,-164.5 3213.29,-171.5"/>
</g>
<!-- MatIconModule -->
<g id="node24" class="node">
<title>MatIconModule</title>
<polygon fill="#8dd3c7" stroke="black" points="1370.47,-122 1367.47,-126 1346.47,-126 1343.47,-122 1263.53,-122 1263.53,-86 1370.47,-86 1370.47,-122"/>
<text text-anchor="middle" x="1317" y="-99.8" font-family="Times,serif" font-size="14.00">MatIconModule</text>
</g>
<!-- MatIconModule&#45;&gt;AppModule -->
<g id="edge23" class="edge">
<title>MatIconModule&#45;&gt;AppModule</title>
<path fill="none" stroke="black" d="M1317,-122.11C1317,-141.34 1317,-169 1317,-169 1317,-169 3212.96,-169 3212.96,-169"/>
<polygon fill="black" stroke="black" points="3212.96,-172.5 3222.96,-169 3212.96,-165.5 3212.96,-172.5"/>
</g>
<!-- AppRoutingModule -->
<g id="node25" class="node">
<title>AppRoutingModule</title>
<polygon fill="#8dd3c7" stroke="black" points="1245.27,-122 1242.27,-126 1221.27,-126 1218.27,-122 1116.73,-122 1116.73,-86 1245.27,-86 1245.27,-122"/>
<text text-anchor="middle" x="1181" y="-99.8" font-family="Times,serif" font-size="14.00">AppRoutingModule</text>
</g>
<!-- AppRoutingModule&#45;&gt;AppModule -->
<g id="edge24" class="edge">
<title>AppRoutingModule&#45;&gt;AppModule</title>
<path fill="none" stroke="black" d="M1181,-122.31C1181,-142.15 1181,-171 1181,-171 1181,-171 3212.9,-171 3212.9,-171"/>
<polygon fill="black" stroke="black" points="3212.9,-174.5 3222.9,-171 3212.9,-167.5 3212.9,-174.5"/>
</g>
<!-- ScrollingModule -->
<g id="node26" class="node">
<title>ScrollingModule</title>
<polygon fill="#8dd3c7" stroke="black" points="1098.38,-122 1095.38,-126 1074.38,-126 1071.38,-122 987.62,-122 987.62,-86 1098.38,-86 1098.38,-122"/>
<text text-anchor="middle" x="1043" y="-99.8" font-family="Times,serif" font-size="14.00">ScrollingModule</text>
</g>
<!-- ScrollingModule&#45;&gt;AppModule -->
<g id="edge25" class="edge">
<title>ScrollingModule&#45;&gt;AppModule</title>
<path fill="none" stroke="black" d="M1043,-122.13C1043,-142.57 1043,-173 1043,-173 1043,-173 3213.09,-173 3213.09,-173"/>
<polygon fill="black" stroke="black" points="3213.09,-176.5 3223.09,-173 3213.09,-169.5 3213.09,-176.5"/>
</g>
<!-- MatListModule -->
<g id="node27" class="node">
<title>MatListModule</title>
<polygon fill="#8dd3c7" stroke="black" points="969.88,-122 966.88,-126 945.88,-126 942.88,-122 866.12,-122 866.12,-86 969.88,-86 969.88,-122"/>
<text text-anchor="middle" x="918" y="-99.8" font-family="Times,serif" font-size="14.00">MatListModule</text>
</g>
<!-- MatListModule&#45;&gt;AppModule -->
<g id="edge26" class="edge">
<title>MatListModule&#45;&gt;AppModule</title>
<path fill="none" stroke="black" d="M918,-122.28C918,-143.32 918,-175 918,-175 918,-175 3213.27,-175 3213.27,-175"/>
<polygon fill="black" stroke="black" points="3213.27,-178.5 3223.27,-175 3213.27,-171.5 3213.27,-178.5"/>
</g>
<!-- MatSelectModule -->
<g id="node28" class="node">
<title>MatSelectModule</title>
<polygon fill="#8dd3c7" stroke="black" points="848.31,-122 845.31,-126 824.31,-126 821.31,-122 731.69,-122 731.69,-86 848.31,-86 848.31,-122"/>
<text text-anchor="middle" x="790" y="-99.8" font-family="Times,serif" font-size="14.00">MatSelectModule</text>
</g>
<!-- MatSelectModule&#45;&gt;AppModule -->
<g id="edge27" class="edge">
<title>MatSelectModule&#45;&gt;AppModule</title>
<path fill="none" stroke="black" d="M790,-122.04C790,-143.66 790,-177 790,-177 790,-177 3213.34,-177 3213.34,-177"/>
<polygon fill="black" stroke="black" points="3213.34,-180.5 3223.34,-177 3213.34,-173.5 3213.34,-180.5"/>
</g>
<!-- FormsModule -->
<g id="node29" class="node">
<title>FormsModule</title>
<polygon fill="#8dd3c7" stroke="black" points="713.83,-122 710.83,-126 689.83,-126 686.83,-122 618.17,-122 618.17,-86 713.83,-86 713.83,-122"/>
<text text-anchor="middle" x="666" y="-99.8" font-family="Times,serif" font-size="14.00">FormsModule</text>
</g>
<!-- FormsModule&#45;&gt;AppModule -->
<g id="edge28" class="edge">
<title>FormsModule&#45;&gt;AppModule</title>
<path fill="none" stroke="black" d="M666,-122.29C666,-144.21 666,-178 666,-178 666,-178 3213.12,-178 3213.12,-178"/>
<polygon fill="black" stroke="black" points="3213.12,-181.5 3223.12,-178 3213.12,-174.5 3213.12,-181.5"/>
</g>
<!-- ReactiveFormsModule -->
<g id="node30" class="node">
<title>ReactiveFormsModule</title>
<polygon fill="#8dd3c7" stroke="black" points="600.3,-122 597.3,-126 576.3,-126 573.3,-122 455.7,-122 455.7,-86 600.3,-86 600.3,-122"/>
<text text-anchor="middle" x="528" y="-99.8" font-family="Times,serif" font-size="14.00">ReactiveFormsModule</text>
</g>
<!-- ReactiveFormsModule&#45;&gt;AppModule -->
<g id="edge29" class="edge">
<title>ReactiveFormsModule&#45;&gt;AppModule</title>
<path fill="none" stroke="black" d="M528,-122.01C528,-144.49 528,-180 528,-180 528,-180 3213.1,-180 3213.1,-180"/>
<polygon fill="black" stroke="black" points="3213.1,-183.5 3223.1,-180 3213.1,-176.5 3213.1,-183.5"/>
</g>
<!-- MatInputModule -->
<g id="node31" class="node">
<title>MatInputModule</title>
<polygon fill="#8dd3c7" stroke="black" points="437.65,-122 434.65,-126 413.65,-126 410.65,-122 326.35,-122 326.35,-86 437.65,-86 437.65,-122"/>
<text text-anchor="middle" x="382" y="-99.8" font-family="Times,serif" font-size="14.00">MatInputModule</text>
</g>
<!-- MatInputModule&#45;&gt;AppModule -->
<g id="edge30" class="edge">
<title>MatInputModule&#45;&gt;AppModule</title>
<path fill="none" stroke="black" d="M382,-122.09C382,-145.13 382,-182 382,-182 382,-182 3213.13,-182 3213.13,-182"/>
<polygon fill="black" stroke="black" points="3213.13,-185.5 3223.13,-182 3213.13,-178.5 3213.13,-185.5"/>
</g>
<!-- MatDatepickerModule -->
<g id="node32" class="node">
<title>MatDatepickerModule</title>
<ellipse fill="#8dd3c7" stroke="black" cx="4629" cy="-104" rx="98.98" ry="18"/>
<text text-anchor="middle" x="4629" y="-99.8" font-family="Times,serif" font-size="14.00">MatDatepickerModule</text>
</g>
<!-- MatDatepickerModule&#45;&gt;AppModule -->
<g id="edge31" class="edge">
<title>MatDatepickerModule&#45;&gt;AppModule</title>
<path fill="none" stroke="black" d="M4662,-121.1C4662,-137.25 4662,-159 4662,-159 4662,-159 3316.81,-159 3316.81,-159"/>
<polygon fill="black" stroke="black" points="3316.81,-155.5 3306.81,-159 3316.81,-162.5 3316.81,-155.5"/>
</g>
<!-- MatDatepickerModule&#45;&gt;AppModule -->
<g id="edge37" class="edge">
<title>MatDatepickerModule&#45;&gt;AppModule</title>
<path fill="none" stroke="black" d="M4596,-121.06C4596,-136.55 4596,-157 4596,-157 4596,-157 3316.66,-157 3316.66,-157"/>
<polygon fill="black" stroke="black" points="3316.66,-153.5 3306.66,-157 3316.66,-160.5 3316.66,-153.5"/>
</g>
<!-- MatNativeDateModule -->
<g id="node33" class="node">
<title>MatNativeDateModule</title>
<polygon fill="#8dd3c7" stroke="black" points="307.84,-122 304.84,-126 283.84,-126 280.84,-122 162.16,-122 162.16,-86 307.84,-86 307.84,-122"/>
<text text-anchor="middle" x="235" y="-99.8" font-family="Times,serif" font-size="14.00">MatNativeDateModule</text>
</g>
<!-- MatNativeDateModule&#45;&gt;AppModule -->
<g id="edge32" class="edge">
<title>MatNativeDateModule&#45;&gt;AppModule</title>
<path fill="none" stroke="black" d="M235,-122.15C235,-145.76 235,-184 235,-184 235,-184 3213.32,-184 3213.32,-184"/>
<polygon fill="black" stroke="black" points="3213.32,-187.5 3223.32,-184 3213.32,-180.5 3213.32,-187.5"/>
</g>
<!-- MatButtonModule -->
<g id="node34" class="node">
<title>MatButtonModule</title>
<polygon fill="#8dd3c7" stroke="black" points="144.22,-122 141.22,-126 120.22,-126 117.22,-122 23.78,-122 23.78,-86 144.22,-86 144.22,-122"/>
<text text-anchor="middle" x="84" y="-99.8" font-family="Times,serif" font-size="14.00">MatButtonModule</text>
</g>
<!-- MatButtonModule&#45;&gt;AppModule -->
<g id="edge33" class="edge">
<title>MatButtonModule&#45;&gt;AppModule</title>
<path fill="none" stroke="black" d="M84,-122.2C84,-146.36 84,-186 84,-186 84,-186 3213.32,-186 3213.32,-186"/>
<polygon fill="black" stroke="black" points="3213.32,-189.5 3223.32,-186 3213.32,-182.5 3213.32,-189.5"/>
</g>
<!-- Constant -->
<g id="node36" class="node">
<title>Constant</title>
<ellipse fill="#fdb462" stroke="black" cx="4467" cy="-104" rx="45.24" ry="18"/>
<text text-anchor="middle" x="4467" y="-99.8" font-family="Times,serif" font-size="14.00">Constant</text>
</g>
<!-- Constant&#45;&gt;AppModule -->
<g id="edge35" class="edge">
<title>Constant&#45;&gt;AppModule</title>
<path fill="none" stroke="black" d="M4467,-122.12C4467,-136.78 4467,-155 4467,-155 4467,-155 3316.72,-155 3316.72,-155"/>
<polygon fill="black" stroke="black" points="3316.72,-151.5 3306.72,-155 3316.72,-158.5 3316.72,-151.5"/>
</g>
<!-- DataAlphabet -->
<g id="node37" class="node">
<title>DataAlphabet</title>
<ellipse fill="#fdb462" stroke="black" cx="4339" cy="-104" rx="64.83" ry="18"/>
<text text-anchor="middle" x="4339" y="-99.8" font-family="Times,serif" font-size="14.00">DataAlphabet</text>
</g>
<!-- DataAlphabet&#45;&gt;AppModule -->
<g id="edge36" class="edge">
<title>DataAlphabet&#45;&gt;AppModule</title>
<path fill="none" stroke="black" d="M4339,-122.25C4339,-136.18 4339,-153 4339,-153 4339,-153 3316.77,-153 3316.77,-153"/>
<polygon fill="black" stroke="black" points="3316.77,-149.5 3306.77,-153 3316.77,-156.5 3316.77,-149.5"/>
</g>
<!-- { provide: DateAdapter, useClass: MomentDateAdapter, deps: [MAT_DATE_LOCALE, MAT_MOMENT_DATE_ADAPTER_OPTIONS] } -->
<g id="node38" class="node">
<title>{ provide: DateAdapter, useClass: MomentDateAdapter, deps: [MAT_DATE_LOCALE, MAT_MOMENT_DATE_ADAPTER_OPTIONS] }</title>
<ellipse fill="#fdb462" stroke="black" cx="3693" cy="-104" rx="563.21" ry="18"/>
<text text-anchor="middle" x="3693" y="-99.8" font-family="Times,serif" font-size="14.00">{ provide: DateAdapter, useClass: MomentDateAdapter, deps: [MAT_DATE_LOCALE, MAT_MOMENT_DATE_ADAPTER_OPTIONS] }</text>
</g>
<!-- { provide: DateAdapter, useClass: MomentDateAdapter, deps: [MAT_DATE_LOCALE, MAT_MOMENT_DATE_ADAPTER_OPTIONS] }&#45;&gt;AppModule -->
<g id="edge38" class="edge">
<title>{ provide: DateAdapter, useClass: MomentDateAdapter, deps: [MAT_DATE_LOCALE, MAT_MOMENT_DATE_ADAPTER_OPTIONS] }&#45;&gt;AppModule</title>
<path fill="none" stroke="black" d="M3265,-115.92C3265,-115.92 3265,-140.77 3265,-140.77"/>
<polygon fill="black" stroke="black" points="3261.5,-140.77 3265,-150.77 3268.5,-140.77 3261.5,-140.77"/>
</g>
<!-- { provide: MAT_DATE_FORMATS, useValue: MY_FORMATS } -->
<g id="node39" class="node">
<title>{ provide: MAT_DATE_FORMATS, useValue: MY_FORMATS }</title>
<ellipse fill="#fdb462" stroke="black" cx="2838" cy="-104" rx="274.06" ry="18"/>
<text text-anchor="middle" x="2838" y="-99.8" font-family="Times,serif" font-size="14.00">{ provide: MAT_DATE_FORMATS, useValue: MY_FORMATS }</text>
</g>
<!-- { provide: MAT_DATE_FORMATS, useValue: MY_FORMATS }&#45;&gt;AppModule -->
<g id="edge39" class="edge">
<title>{ provide: MAT_DATE_FORMATS, useValue: MY_FORMATS }&#45;&gt;AppModule</title>
<path fill="none" stroke="black" d="M2838,-122.25C2838,-136.18 2838,-153 2838,-153 2838,-153 3213.28,-153 3213.28,-153"/>
<polygon fill="black" stroke="black" points="3213.28,-156.5 3223.28,-153 3213.28,-149.5 3213.28,-156.5"/>
</g>
</g>
</svg>
