<?xml version="1.0" encoding="UTF-8" standalone="no"?>
<!DOCTYPE svg PUBLIC "-//W3C//DTD SVG 1.1//EN"
 "http://www.w3.org/Graphics/SVG/1.1/DTD/svg11.dtd">
<!-- Generated by graphviz version 2.46.0 (20210119.1425)
 -->
<!-- Title: dependencies Pages: 1 -->
<svg width="6966pt" height="284pt"
 viewBox="0.00 0.00 6966.00 284.00" xmlns="http://www.w3.org/2000/svg" xmlns:xlink="http://www.w3.org/1999/xlink">
<g id="graph0" class="graph" transform="scale(1 1) rotate(0) translate(4 280)">
<title>dependencies</title>
<polygon fill="white" stroke="transparent" points="-4,4 -4,-280 6962,-280 6962,4 -4,4"/>
<text text-anchor="start" x="3458.01" y="-42.4" font-family="sans-serif" font-weight="bold" font-size="14.00">Legend</text>
<polygon fill="#ffffb3" stroke="transparent" points="3245,-10 3245,-30 3265,-30 3265,-10 3245,-10"/>
<text text-anchor="start" x="3268.63" y="-15.4" font-family="sans-serif" font-size="14.00"> &#160;Declarations</text>
<polygon fill="#8dd3c7" stroke="transparent" points="3358,-10 3358,-30 3378,-30 3378,-10 3358,-10"/>
<text text-anchor="start" x="3381.73" y="-15.4" font-family="sans-serif" font-size="14.00"> &#160;Module</text>
<polygon fill="#80b1d3" stroke="transparent" points="3444,-10 3444,-30 3464,-30 3464,-10 3444,-10"/>
<text text-anchor="start" x="3467.78" y="-15.4" font-family="sans-serif" font-size="14.00"> &#160;Bootstrap</text>
<polygon fill="#fdb462" stroke="transparent" points="3541,-10 3541,-30 3561,-30 3561,-10 3541,-10"/>
<text text-anchor="start" x="3564.67" y="-15.4" font-family="sans-serif" font-size="14.00"> &#160;Providers</text>
<polygon fill="#fb8072" stroke="transparent" points="3637,-10 3637,-30 3657,-30 3657,-10 3637,-10"/>
<text text-anchor="start" x="3660.73" y="-15.4" font-family="sans-serif" font-size="14.00"> &#160;Exports</text>
<g id="clust1" class="cluster">
<title>cluster_AppModule</title>
<polygon fill="none" stroke="black" stroke-dasharray="1,5" points="8,-70 8,-268 6950,-268 6950,-70 8,-70"/>
</g>
<g id="clust2" class="cluster">
<title>cluster_AppModule_declarations</title>
<polygon fill="none" stroke="black" points="4744,-78 4744,-130 6942,-130 6942,-78 4744,-78"/>
</g>
<g id="clust17" class="cluster">
<title>cluster_AppModule_imports</title>
<polygon fill="none" stroke="black" points="1988,-78 1988,-130 4736,-130 4736,-78 1988,-78"/>
</g>
<g id="clust19" class="cluster">
<title>cluster_AppModule_bootstrap</title>
<polygon fill="none" stroke="black" points="3947,-208 3947,-260 4071,-260 4071,-208 3947,-208"/>
</g>
<g id="clust20" class="cluster">
<title>cluster_AppModule_providers</title>
<polygon fill="none" stroke="black" points="16,-78 16,-130 1980,-130 1980,-78 16,-78"/>
</g>
<!-- AppComponent -->
<g id="node1" class="node">
<title>AppComponent</title>
<polygon fill="#ffffb3" stroke="black" points="6933.94,-122 6828.06,-122 6828.06,-86 6933.94,-86 6933.94,-122"/>
<text text-anchor="middle" x="6881" y="-99.8" font-family="Times,serif" font-size="14.00">AppComponent</text>
</g>
<!-- AppModule -->
<g id="node15" class="node">
<title>AppModule</title>
<polygon fill="#8dd3c7" stroke="black" points="4050.66,-187 4047.66,-191 4026.66,-191 4023.66,-187 3967.34,-187 3967.34,-151 4050.66,-151 4050.66,-187"/>
<text text-anchor="middle" x="4009" y="-164.8" font-family="Times,serif" font-size="14.00">AppModule</text>
</g>
<!-- AppComponent&#45;&gt;AppModule -->
<g id="edge1" class="edge">
<title>AppComponent&#45;&gt;AppModule</title>
<path fill="none" stroke="black" d="M6881,-122.2C6881,-146.36 6881,-186 6881,-186 6881,-186 4060.71,-186 4060.71,-186"/>
<polygon fill="black" stroke="black" points="4060.71,-182.5 4050.71,-186 4060.71,-189.5 4060.71,-182.5"/>
</g>
<!-- HeaderComponent -->
<g id="node2" class="node">
<title>HeaderComponent</title>
<polygon fill="#ffffb3" stroke="black" points="6809.74,-122 6688.26,-122 6688.26,-86 6809.74,-86 6809.74,-122"/>
<text text-anchor="middle" x="6749" y="-99.8" font-family="Times,serif" font-size="14.00">HeaderComponent</text>
</g>
<!-- HeaderComponent&#45;&gt;AppModule -->
<g id="edge2" class="edge">
<title>HeaderComponent&#45;&gt;AppModule</title>
<path fill="none" stroke="black" d="M6749,-122.15C6749,-145.76 6749,-184 6749,-184 6749,-184 4060.67,-184 4060.67,-184"/>
<polygon fill="black" stroke="black" points="4060.67,-180.5 4050.67,-184 4060.67,-187.5 4060.67,-180.5"/>
</g>
<!-- CharactersPageComponent -->
<g id="node3" class="node">
<title>CharactersPageComponent</title>
<polygon fill="#ffffb3" stroke="black" points="6670.4,-122 6501.6,-122 6501.6,-86 6670.4,-86 6670.4,-122"/>
<text text-anchor="middle" x="6586" y="-99.8" font-family="Times,serif" font-size="14.00">CharactersPageComponent</text>
</g>
<!-- CharactersPageComponent&#45;&gt;AppModule -->
<g id="edge3" class="edge">
<title>CharactersPageComponent&#45;&gt;AppModule</title>
<path fill="none" stroke="black" d="M6586,-122.09C6586,-145.13 6586,-182 6586,-182 6586,-182 4060.79,-182 4060.79,-182"/>
<polygon fill="black" stroke="black" points="4060.79,-178.5 4050.79,-182 4060.79,-185.5 4060.79,-178.5"/>
</g>
<!-- ComicsPageComponent -->
<g id="node4" class="node">
<title>ComicsPageComponent</title>
<polygon fill="#ffffb3" stroke="black" points="6483.82,-122 6332.18,-122 6332.18,-86 6483.82,-86 6483.82,-122"/>
<text text-anchor="middle" x="6408" y="-99.8" font-family="Times,serif" font-size="14.00">ComicsPageComponent</text>
</g>
<!-- ComicsPageComponent&#45;&gt;AppModule -->
<g id="edge4" class="edge">
<title>ComicsPageComponent&#45;&gt;AppModule</title>
<path fill="none" stroke="black" d="M6408,-122.01C6408,-144.49 6408,-180 6408,-180 6408,-180 4060.89,-180 4060.89,-180"/>
<polygon fill="black" stroke="black" points="4060.89,-176.5 4050.89,-180 4060.89,-183.5 4060.89,-176.5"/>
</g>
<!-- CreatorPageComponent -->
<g id="node5" class="node">
<title>CreatorPageComponent</title>
<polygon fill="#ffffb3" stroke="black" points="6314.02,-122 6163.98,-122 6163.98,-86 6314.02,-86 6314.02,-122"/>
<text text-anchor="middle" x="6239" y="-99.8" font-family="Times,serif" font-size="14.00">CreatorPageComponent</text>
</g>
<!-- CreatorPageComponent&#45;&gt;AppModule -->
<g id="edge5" class="edge">
<title>CreatorPageComponent&#45;&gt;AppModule</title>
<path fill="none" stroke="black" d="M6239,-122.29C6239,-144.21 6239,-178 6239,-178 6239,-178 4061.07,-178 4061.07,-178"/>
<polygon fill="black" stroke="black" points="4061.07,-174.5 4051.07,-178 4061.07,-181.5 4061.07,-174.5"/>
</g>
<!-- HomeComponent -->
<g id="node6" class="node">
<title>HomeComponent</title>
<polygon fill="#ffffb3" stroke="black" points="6145.55,-122 6030.45,-122 6030.45,-86 6145.55,-86 6145.55,-122"/>
<text text-anchor="middle" x="6088" y="-99.8" font-family="Times,serif" font-size="14.00">HomeComponent</text>
</g>
<!-- HomeComponent&#45;&gt;AppModule -->
<g id="edge6" class="edge">
<title>HomeComponent&#45;&gt;AppModule</title>
<path fill="none" stroke="black" d="M6088,-122.17C6088,-143.5 6088,-176 6088,-176 6088,-176 4061,-176 4061,-176"/>
<polygon fill="black" stroke="black" points="4061,-172.5 4051,-176 4061,-179.5 4061,-172.5"/>
</g>
<!-- SeriesPageComponent -->
<g id="node7" class="node">
<title>SeriesPageComponent</title>
<polygon fill="#ffffb3" stroke="black" points="6012.25,-122 5869.75,-122 5869.75,-86 6012.25,-86 6012.25,-122"/>
<text text-anchor="middle" x="5941" y="-99.8" font-family="Times,serif" font-size="14.00">SeriesPageComponent</text>
</g>
<!-- SeriesPageComponent&#45;&gt;AppModule -->
<g id="edge7" class="edge">
<title>SeriesPageComponent&#45;&gt;AppModule</title>
<path fill="none" stroke="black" d="M5941,-122.03C5941,-142.77 5941,-174 5941,-174 5941,-174 4060.7,-174 4060.7,-174"/>
<polygon fill="black" stroke="black" points="4060.7,-170.5 4050.7,-174 4060.7,-177.5 4060.7,-170.5"/>
</g>
<!-- ComicsComponent -->
<g id="node8" class="node">
<title>ComicsComponent</title>
<polygon fill="#ffffb3" stroke="black" points="5852.11,-122 5727.89,-122 5727.89,-86 5852.11,-86 5852.11,-122"/>
<text text-anchor="middle" x="5790" y="-99.8" font-family="Times,serif" font-size="14.00">ComicsComponent</text>
</g>
<!-- ComicsComponent&#45;&gt;AppModule -->
<g id="edge8" class="edge">
<title>ComicsComponent&#45;&gt;AppModule</title>
<path fill="none" stroke="black" d="M5790,-122.22C5790,-142.37 5790,-172 5790,-172 5790,-172 4060.83,-172 4060.83,-172"/>
<polygon fill="black" stroke="black" points="4060.83,-168.5 4050.83,-172 4060.83,-175.5 4060.83,-168.5"/>
</g>
<!-- CharacterDetailComponent -->
<g id="node9" class="node">
<title>CharacterDetailComponent</title>
<polygon fill="#ffffb3" stroke="black" points="5709.95,-122 5540.05,-122 5540.05,-86 5709.95,-86 5709.95,-122"/>
<text text-anchor="middle" x="5625" y="-99.8" font-family="Times,serif" font-size="14.00">CharacterDetailComponent</text>
</g>
<!-- CharacterDetailComponent&#45;&gt;AppModule -->
<g id="edge9" class="edge">
<title>CharacterDetailComponent&#45;&gt;AppModule</title>
<path fill="none" stroke="black" d="M5625,-122.03C5625,-141.58 5625,-170 5625,-170 5625,-170 4060.98,-170 4060.98,-170"/>
<polygon fill="black" stroke="black" points="4060.98,-166.5 4050.98,-170 4060.98,-173.5 4060.98,-166.5"/>
</g>
<!-- ComicDetailComponent -->
<g id="node10" class="node">
<title>ComicDetailComponent</title>
<polygon fill="#ffffb3" stroke="black" points="5522.37,-122 5369.63,-122 5369.63,-86 5522.37,-86 5522.37,-122"/>
<text text-anchor="middle" x="5446" y="-99.8" font-family="Times,serif" font-size="14.00">ComicDetailComponent</text>
</g>
<!-- ComicDetailComponent&#45;&gt;AppModule -->
<g id="edge10" class="edge">
<title>ComicDetailComponent&#45;&gt;AppModule</title>
<path fill="none" stroke="black" d="M5446,-122.11C5446,-141.34 5446,-169 5446,-169 5446,-169 4060.84,-169 4060.84,-169"/>
<polygon fill="black" stroke="black" points="4060.84,-165.5 4050.84,-169 4060.84,-172.5 4060.84,-165.5"/>
</g>
<!-- CharacterComponent -->
<g id="node11" class="node">
<title>CharacterComponent</title>
<polygon fill="#ffffb3" stroke="black" points="5351.74,-122 5216.26,-122 5216.26,-86 5351.74,-86 5351.74,-122"/>
<text text-anchor="middle" x="5284" y="-99.8" font-family="Times,serif" font-size="14.00">CharacterComponent</text>
</g>
<!-- CharacterComponent&#45;&gt;AppModule -->
<g id="edge11" class="edge">
<title>CharacterComponent&#45;&gt;AppModule</title>
<path fill="none" stroke="black" d="M5284,-122.22C5284,-140.83 5284,-167 5284,-167 5284,-167 4060.7,-167 4060.7,-167"/>
<polygon fill="black" stroke="black" points="4060.7,-163.5 4050.7,-167 4060.7,-170.5 4060.7,-163.5"/>
</g>
<!-- CreatorDetailComponent -->
<g id="node12" class="node">
<title>CreatorDetailComponent</title>
<polygon fill="#ffffb3" stroke="black" points="5197.52,-122 5040.48,-122 5040.48,-86 5197.52,-86 5197.52,-122"/>
<text text-anchor="middle" x="5119" y="-99.8" font-family="Times,serif" font-size="14.00">CreatorDetailComponent</text>
</g>
<!-- CreatorDetailComponent&#45;&gt;AppModule -->
<g id="edge12" class="edge">
<title>CreatorDetailComponent&#45;&gt;AppModule</title>
<path fill="none" stroke="black" d="M5119,-122.3C5119,-140.27 5119,-165 5119,-165 5119,-165 4060.82,-165 4060.82,-165"/>
<polygon fill="black" stroke="black" points="4060.82,-161.5 4050.82,-165 4060.82,-168.5 4060.82,-161.5"/>
</g>
<!-- SerieComponent -->
<g id="node13" class="node">
<title>SerieComponent</title>
<polygon fill="#ffffb3" stroke="black" points="5022.1,-122 4911.9,-122 4911.9,-86 5022.1,-86 5022.1,-122"/>
<text text-anchor="middle" x="4967" y="-99.8" font-family="Times,serif" font-size="14.00">SerieComponent</text>
</g>
<!-- SerieComponent&#45;&gt;AppModule -->
<g id="edge13" class="edge">
<title>SerieComponent&#45;&gt;AppModule</title>
<path fill="none" stroke="black" d="M4967,-122.02C4967,-139.37 4967,-163 4967,-163 4967,-163 4060.78,-163 4060.78,-163"/>
<polygon fill="black" stroke="black" points="4060.78,-159.5 4050.78,-163 4060.78,-166.5 4060.78,-159.5"/>
</g>
<!-- CardDetailComponent -->
<g id="node14" class="node">
<title>CardDetailComponent</title>
<polygon fill="#ffffb3" stroke="black" points="4894.25,-122 4751.75,-122 4751.75,-86 4894.25,-86 4894.25,-122"/>
<text text-anchor="middle" x="4823" y="-99.8" font-family="Times,serif" font-size="14.00">CardDetailComponent</text>
</g>
<!-- CardDetailComponent&#45;&gt;AppModule -->
<g id="edge14" class="edge">
<title>CardDetailComponent&#45;&gt;AppModule</title>
<path fill="none" stroke="black" d="M4823,-122.04C4823,-138.73 4823,-161 4823,-161 4823,-161 4060.77,-161 4060.77,-161"/>
<polygon fill="black" stroke="black" points="4060.77,-157.5 4050.77,-161 4060.77,-164.5 4060.77,-157.5"/>
</g>
<!-- AppComponent  -->
<g id="node35" class="node">
<title>AppComponent </title>
<polygon fill="#80b1d3" stroke="black" points="4063.44,-252 3954.56,-252 3954.56,-216 4063.44,-216 4063.44,-252"/>
<text text-anchor="middle" x="4009" y="-229.8" font-family="Times,serif" font-size="14.00">AppComponent </text>
</g>
<!-- AppModule&#45;&gt;AppComponent  -->
<g id="edge34" class="edge">
<title>AppModule&#45;&gt;AppComponent </title>
<path fill="none" stroke="black" stroke-dasharray="1,5" d="M4009,-187.11C4009,-187.11 4009,-205.99 4009,-205.99"/>
<polygon fill="black" stroke="black" points="4005.5,-205.99 4009,-215.99 4012.5,-205.99 4005.5,-205.99"/>
</g>
<!-- BrowserModule -->
<g id="node16" class="node">
<title>BrowserModule</title>
<polygon fill="#8dd3c7" stroke="black" points="4728.47,-122 4725.47,-126 4704.47,-126 4701.47,-122 4621.53,-122 4621.53,-86 4728.47,-86 4728.47,-122"/>
<text text-anchor="middle" x="4675" y="-99.8" font-family="Times,serif" font-size="14.00">BrowserModule</text>
</g>
<!-- BrowserModule&#45;&gt;AppModule -->
<g id="edge15" class="edge">
<title>BrowserModule&#45;&gt;AppModule</title>
<path fill="none" stroke="black" d="M4675,-122.01C4675,-138.05 4675,-159 4675,-159 4675,-159 4060.66,-159 4060.66,-159"/>
<polygon fill="black" stroke="black" points="4060.66,-155.5 4050.66,-159 4060.66,-162.5 4060.66,-155.5"/>
</g>
<!-- HttpClientModule -->
<g id="node17" class="node">
<title>HttpClientModule</title>
<polygon fill="#8dd3c7" stroke="black" points="4603.16,-122 4600.16,-126 4579.16,-126 4576.16,-122 4484.84,-122 4484.84,-86 4603.16,-86 4603.16,-122"/>
<text text-anchor="middle" x="4544" y="-99.8" font-family="Times,serif" font-size="14.00">HttpClientModule</text>
</g>
<!-- HttpClientModule&#45;&gt;AppModule -->
<g id="edge16" class="edge">
<title>HttpClientModule&#45;&gt;AppModule</title>
<path fill="none" stroke="black" d="M4544,-122.24C4544,-137.57 4544,-157 4544,-157 4544,-157 4060.98,-157 4060.98,-157"/>
<polygon fill="black" stroke="black" points="4060.98,-153.5 4050.98,-157 4060.98,-160.5 4060.98,-153.5"/>
</g>
<!-- BrowserAnimationsModule -->
<g id="node18" class="node">
<title>BrowserAnimationsModule</title>
<polygon fill="#8dd3c7" stroke="black" points="4467.3,-122 4464.3,-126 4443.3,-126 4440.3,-122 4294.7,-122 4294.7,-86 4467.3,-86 4467.3,-122"/>
<text text-anchor="middle" x="4381" y="-99.8" font-family="Times,serif" font-size="14.00">BrowserAnimationsModule</text>
</g>
<!-- BrowserAnimationsModule&#45;&gt;AppModule -->
<g id="edge17" class="edge">
<title>BrowserAnimationsModule&#45;&gt;AppModule</title>
<path fill="none" stroke="black" d="M4381,-122.12C4381,-136.78 4381,-155 4381,-155 4381,-155 4060.95,-155 4060.95,-155"/>
<polygon fill="black" stroke="black" points="4060.95,-151.5 4050.95,-155 4060.95,-158.5 4060.95,-151.5"/>
</g>
<!-- MatCardModule -->
<g id="node19" class="node">
<title>MatCardModule</title>
<polygon fill="#8dd3c7" stroke="black" points="4276.81,-122 4273.81,-126 4252.81,-126 4249.81,-122 4167.19,-122 4167.19,-86 4276.81,-86 4276.81,-122"/>
<text text-anchor="middle" x="4222" y="-99.8" font-family="Times,serif" font-size="14.00">MatCardModule</text>
</g>
<!-- MatCardModule&#45;&gt;AppModule -->
<g id="edge18" class="edge">
<title>MatCardModule&#45;&gt;AppModule</title>
<path fill="none" stroke="black" d="M4222,-122.25C4222,-136.18 4222,-153 4222,-153 4222,-153 4060.83,-153 4060.83,-153"/>
<polygon fill="black" stroke="black" points="4060.83,-149.5 4050.83,-153 4060.83,-156.5 4060.83,-149.5"/>
</g>
<!-- MatPaginatorModule -->
<g id="node20" class="node">
<title>MatPaginatorModule</title>
<polygon fill="#8dd3c7" stroke="black" points="4148.75,-122 4145.75,-126 4124.75,-126 4121.75,-122 4013.25,-122 4013.25,-86 4148.75,-86 4148.75,-122"/>
<text text-anchor="middle" x="4081" y="-99.8" font-family="Times,serif" font-size="14.00">MatPaginatorModule</text>
</g>
<!-- MatPaginatorModule&#45;&gt;AppModule -->
<g id="edge19" class="edge">
<title>MatPaginatorModule&#45;&gt;AppModule</title>
<path fill="none" stroke="black" d="M4031.98,-122.11C4031.98,-122.11 4031.98,-140.99 4031.98,-140.99"/>
<polygon fill="black" stroke="black" points="4028.48,-140.99 4031.98,-150.99 4035.48,-140.99 4028.48,-140.99"/>
</g>
<!-- MatTableModule -->
<g id="node21" class="node">
<title>MatTableModule</title>
<polygon fill="#8dd3c7" stroke="black" points="3994.97,-122 3991.97,-126 3970.97,-126 3967.97,-122 3881.03,-122 3881.03,-86 3994.97,-86 3994.97,-122"/>
<text text-anchor="middle" x="3938" y="-99.8" font-family="Times,serif" font-size="14.00">MatTableModule</text>
</g>
<!-- MatTableModule&#45;&gt;AppModule -->
<g id="edge20" class="edge">
<title>MatTableModule&#45;&gt;AppModule</title>
<path fill="none" stroke="black" d="M3981.08,-122.11C3981.08,-122.11 3981.08,-140.99 3981.08,-140.99"/>
<polygon fill="black" stroke="black" points="3977.58,-140.99 3981.08,-150.99 3984.58,-140.99 3977.58,-140.99"/>
</g>
<!-- MatFormFieldModule -->
<g id="node22" class="node">
<title>MatFormFieldModule</title>
<polygon fill="#8dd3c7" stroke="black" points="3862.71,-122 3859.71,-126 3838.71,-126 3835.71,-122 3721.29,-122 3721.29,-86 3862.71,-86 3862.71,-122"/>
<text text-anchor="middle" x="3792" y="-99.8" font-family="Times,serif" font-size="14.00">MatFormFieldModule</text>
</g>
<!-- MatFormFieldModule&#45;&gt;AppModule -->
<g id="edge21" class="edge">
<title>MatFormFieldModule&#45;&gt;AppModule</title>
<path fill="none" stroke="black" d="M3792,-122.25C3792,-136.18 3792,-153 3792,-153 3792,-153 3957.16,-153 3957.16,-153"/>
<polygon fill="black" stroke="black" points="3957.16,-156.5 3967.16,-153 3957.16,-149.5 3957.16,-156.5"/>
</g>
<!-- MatToolbarModule -->
<g id="node23" class="node">
<title>MatToolbarModule</title>
<polygon fill="#8dd3c7" stroke="black" points="3703.42,-122 3700.42,-126 3679.42,-126 3676.42,-122 3576.58,-122 3576.58,-86 3703.42,-86 3703.42,-122"/>
<text text-anchor="middle" x="3640" y="-99.8" font-family="Times,serif" font-size="14.00">MatToolbarModule</text>
</g>
<!-- MatToolbarModule&#45;&gt;AppModule -->
<g id="edge22" class="edge">
<title>MatToolbarModule&#45;&gt;AppModule</title>
<path fill="none" stroke="black" d="M3640,-122.12C3640,-136.78 3640,-155 3640,-155 3640,-155 3957.03,-155 3957.03,-155"/>
<polygon fill="black" stroke="black" points="3957.03,-158.5 3967.03,-155 3957.03,-151.5 3957.03,-158.5"/>
</g>
<!-- MatIconModule -->
<g id="node24" class="node">
<title>MatIconModule</title>
<polygon fill="#8dd3c7" stroke="black" points="3558.47,-122 3555.47,-126 3534.47,-126 3531.47,-122 3451.53,-122 3451.53,-86 3558.47,-86 3558.47,-122"/>
<text text-anchor="middle" x="3505" y="-99.8" font-family="Times,serif" font-size="14.00">MatIconModule</text>
</g>
<!-- MatIconModule&#45;&gt;AppModule -->
<g id="edge23" class="edge">
<title>MatIconModule&#45;&gt;AppModule</title>
<path fill="none" stroke="black" d="M3505,-122.24C3505,-137.57 3505,-157 3505,-157 3505,-157 3957.33,-157 3957.33,-157"/>
<polygon fill="black" stroke="black" points="3957.33,-160.5 3967.33,-157 3957.33,-153.5 3957.33,-160.5"/>
</g>
<!-- AppRoutingModule -->
<g id="node25" class="node">
<title>AppRoutingModule</title>
<polygon fill="#8dd3c7" stroke="black" points="3433.27,-122 3430.27,-126 3409.27,-126 3406.27,-122 3304.73,-122 3304.73,-86 3433.27,-86 3433.27,-122"/>
<text text-anchor="middle" x="3369" y="-99.8" font-family="Times,serif" font-size="14.00">AppRoutingModule</text>
</g>
<!-- AppRoutingModule&#45;&gt;AppModule -->
<g id="edge24" class="edge">
<title>AppRoutingModule&#45;&gt;AppModule</title>
<path fill="none" stroke="black" d="M3369,-122.01C3369,-138.05 3369,-159 3369,-159 3369,-159 3957.01,-159 3957.01,-159"/>
<polygon fill="black" stroke="black" points="3957.01,-162.5 3967.01,-159 3957.01,-155.5 3957.01,-162.5"/>
</g>
<!-- ScrollingModule -->
<g id="node26" class="node">
<title>ScrollingModule</title>
<polygon fill="#8dd3c7" stroke="black" points="3286.38,-122 3283.38,-126 3262.38,-126 3259.38,-122 3175.62,-122 3175.62,-86 3286.38,-86 3286.38,-122"/>
<text text-anchor="middle" x="3231" y="-99.8" font-family="Times,serif" font-size="14.00">ScrollingModule</text>
</g>
<!-- ScrollingModule&#45;&gt;AppModule -->
<g id="edge25" class="edge">
<title>ScrollingModule&#45;&gt;AppModule</title>
<path fill="none" stroke="black" d="M3231,-122.04C3231,-138.73 3231,-161 3231,-161 3231,-161 3957.17,-161 3957.17,-161"/>
<polygon fill="black" stroke="black" points="3957.17,-164.5 3967.17,-161 3957.17,-157.5 3957.17,-164.5"/>
</g>
<!-- MatListModule -->
<g id="node27" class="node">
<title>MatListModule</title>
<polygon fill="#8dd3c7" stroke="black" points="3157.88,-122 3154.88,-126 3133.88,-126 3130.88,-122 3054.12,-122 3054.12,-86 3157.88,-86 3157.88,-122"/>
<text text-anchor="middle" x="3106" y="-99.8" font-family="Times,serif" font-size="14.00">MatListModule</text>
</g>
<!-- MatListModule&#45;&gt;AppModule -->
<g id="edge26" class="edge">
<title>MatListModule&#45;&gt;AppModule</title>
<path fill="none" stroke="black" d="M3106,-122.02C3106,-139.37 3106,-163 3106,-163 3106,-163 3957.26,-163 3957.26,-163"/>
<polygon fill="black" stroke="black" points="3957.26,-166.5 3967.26,-163 3957.26,-159.5 3957.26,-166.5"/>
</g>
<!-- MatSelectModule -->
<g id="node28" class="node">
<title>MatSelectModule</title>
<polygon fill="#8dd3c7" stroke="black" points="3036.31,-122 3033.31,-126 3012.31,-126 3009.31,-122 2919.69,-122 2919.69,-86 3036.31,-86 3036.31,-122"/>
<text text-anchor="middle" x="2978" y="-99.8" font-family="Times,serif" font-size="14.00">MatSelectModule</text>
</g>
<!-- MatSelectModule&#45;&gt;AppModule -->
<g id="edge27" class="edge">
<title>MatSelectModule&#45;&gt;AppModule</title>
<path fill="none" stroke="black" d="M2978,-122.3C2978,-140.27 2978,-165 2978,-165 2978,-165 3957.31,-165 3957.31,-165"/>
<polygon fill="black" stroke="black" points="3957.31,-168.5 3967.31,-165 3957.31,-161.5 3957.31,-168.5"/>
</g>
<!-- FormsModule -->
<g id="node29" class="node">
<title>FormsModule</title>
<polygon fill="#8dd3c7" stroke="black" points="2901.83,-122 2898.83,-126 2877.83,-126 2874.83,-122 2806.17,-122 2806.17,-86 2901.83,-86 2901.83,-122"/>
<text text-anchor="middle" x="2854" y="-99.8" font-family="Times,serif" font-size="14.00">FormsModule</text>
</g>
<!-- FormsModule&#45;&gt;AppModule -->
<g id="edge28" class="edge">
<title>FormsModule&#45;&gt;AppModule</title>
<path fill="none" stroke="black" d="M2854,-122.22C2854,-140.83 2854,-167 2854,-167 2854,-167 3957.21,-167 3957.21,-167"/>
<polygon fill="black" stroke="black" points="3957.21,-170.5 3967.21,-167 3957.21,-163.5 3957.21,-170.5"/>
</g>
<!-- ReactiveFormsModule -->
<g id="node30" class="node">
<title>ReactiveFormsModule</title>
<polygon fill="#8dd3c7" stroke="black" points="2788.3,-122 2785.3,-126 2764.3,-126 2761.3,-122 2643.7,-122 2643.7,-86 2788.3,-86 2788.3,-122"/>
<text text-anchor="middle" x="2716" y="-99.8" font-family="Times,serif" font-size="14.00">ReactiveFormsModule</text>
</g>
<!-- ReactiveFormsModule&#45;&gt;AppModule -->
<g id="edge29" class="edge">
<title>ReactiveFormsModule&#45;&gt;AppModule</title>
<path fill="none" stroke="black" d="M2716,-122.11C2716,-141.34 2716,-169 2716,-169 2716,-169 3957.08,-169 3957.08,-169"/>
<polygon fill="black" stroke="black" points="3957.08,-172.5 3967.08,-169 3957.08,-165.5 3957.08,-172.5"/>
</g>
<!-- MatInputModule -->
<g id="node31" class="node">
<title>MatInputModule</title>
<polygon fill="#8dd3c7" stroke="black" points="2625.65,-122 2622.65,-126 2601.65,-126 2598.65,-122 2514.35,-122 2514.35,-86 2625.65,-86 2625.65,-122"/>
<text text-anchor="middle" x="2570" y="-99.8" font-family="Times,serif" font-size="14.00">MatInputModule</text>
</g>
<!-- MatInputModule&#45;&gt;AppModule -->
<g id="edge30" class="edge">
<title>MatInputModule&#45;&gt;AppModule</title>
<path fill="none" stroke="black" d="M2570,-122.03C2570,-141.58 2570,-170 2570,-170 2570,-170 3957.1,-170 3957.1,-170"/>
<polygon fill="black" stroke="black" points="3957.1,-173.5 3967.1,-170 3957.1,-166.5 3957.1,-173.5"/>
</g>
<!-- MatDatepickerModule -->
<g id="node32" class="node">
<title>MatDatepickerModule</title>
<ellipse fill="#8dd3c7" stroke="black" cx="2397" cy="-104" rx="98.98" ry="18"/>
<text text-anchor="middle" x="2397" y="-99.8" font-family="Times,serif" font-size="14.00">MatDatepickerModule</text>
</g>
<!-- MatDatepickerModule&#45;&gt;AppModule -->
<g id="edge31" class="edge">
<title>MatDatepickerModule&#45;&gt;AppModule</title>
<path fill="none" stroke="black" d="M2364,-121.3C2364,-142.03 2364,-174 2364,-174 2364,-174 3957.1,-174 3957.1,-174"/>
<polygon fill="black" stroke="black" points="3957.1,-177.5 3967.1,-174 3957.1,-170.5 3957.1,-177.5"/>
</g>
<!-- MatDatepickerModule&#45;&gt;AppModule -->
<g id="edge37" class="edge">
<title>MatDatepickerModule&#45;&gt;AppModule</title>
<path fill="none" stroke="black" d="M2430,-121.16C2430,-141.3 2430,-172 2430,-172 2430,-172 3957.17,-172 3957.17,-172"/>
<polygon fill="black" stroke="black" points="3957.17,-175.5 3967.17,-172 3957.17,-168.5 3957.17,-175.5"/>
</g>
<!-- MatNativeDateModule -->
<g id="node33" class="node">
<title>MatNativeDateModule</title>
<polygon fill="#8dd3c7" stroke="black" points="2279.84,-122 2276.84,-126 2255.84,-126 2252.84,-122 2134.16,-122 2134.16,-86 2279.84,-86 2279.84,-122"/>
<text text-anchor="middle" x="2207" y="-99.8" font-family="Times,serif" font-size="14.00">MatNativeDateModule</text>
</g>
<!-- MatNativeDateModule&#45;&gt;AppModule -->
<g id="edge32" class="edge">
<title>MatNativeDateModule&#45;&gt;AppModule</title>
<path fill="none" stroke="black" d="M2207,-122.17C2207,-143.5 2207,-176 2207,-176 2207,-176 3957.11,-176 3957.11,-176"/>
<polygon fill="black" stroke="black" points="3957.11,-179.5 3967.11,-176 3957.11,-172.5 3957.11,-179.5"/>
</g>
<!-- MatButtonModule -->
<g id="node34" class="node">
<title>MatButtonModule</title>
<polygon fill="#8dd3c7" stroke="black" points="2116.22,-122 2113.22,-126 2092.22,-126 2089.22,-122 1995.78,-122 1995.78,-86 2116.22,-86 2116.22,-122"/>
<text text-anchor="middle" x="2056" y="-99.8" font-family="Times,serif" font-size="14.00">MatButtonModule</text>
</g>
<!-- MatButtonModule&#45;&gt;AppModule -->
<g id="edge33" class="edge">
<title>MatButtonModule&#45;&gt;AppModule</title>
<path fill="none" stroke="black" d="M2056,-122.29C2056,-144.21 2056,-178 2056,-178 2056,-178 3957.31,-178 3957.31,-178"/>
<polygon fill="black" stroke="black" points="3957.31,-181.5 3967.31,-178 3957.31,-174.5 3957.31,-181.5"/>
</g>
<!-- Constant -->
<g id="node36" class="node">
<title>Constant</title>
<ellipse fill="#fdb462" stroke="black" cx="1927" cy="-104" rx="45.24" ry="18"/>
<text text-anchor="middle" x="1927" y="-99.8" font-family="Times,serif" font-size="14.00">Constant</text>
</g>
<!-- Constant&#45;&gt;AppModule -->
<g id="edge35" class="edge">
<title>Constant&#45;&gt;AppModule</title>
<path fill="none" stroke="black" d="M1927,-122.01C1927,-144.49 1927,-180 1927,-180 1927,-180 3956.94,-180 3956.94,-180"/>
<polygon fill="black" stroke="black" points="3956.94,-183.5 3966.94,-180 3956.94,-176.5 3956.94,-183.5"/>
</g>
<!-- DataAlphabet -->
<g id="node37" class="node">
<title>DataAlphabet</title>
<ellipse fill="#fdb462" stroke="black" cx="1799" cy="-104" rx="64.83" ry="18"/>
<text text-anchor="middle" x="1799" y="-99.8" font-family="Times,serif" font-size="14.00">DataAlphabet</text>
</g>
<!-- DataAlphabet&#45;&gt;AppModule -->
<g id="edge36" class="edge">
<title>DataAlphabet&#45;&gt;AppModule</title>
<path fill="none" stroke="black" d="M1799,-122.09C1799,-145.13 1799,-182 1799,-182 1799,-182 3957.31,-182 3957.31,-182"/>
<polygon fill="black" stroke="black" points="3957.31,-185.5 3967.31,-182 3957.31,-178.5 3957.31,-185.5"/>
</g>
<!-- { provide: DateAdapter, useClass: MomentDateAdapter, deps: [MAT_DATE_LOCALE, MAT_MOMENT_DATE_ADAPTER_OPTIONS] } -->
<g id="node38" class="node">
<title>{ provide: DateAdapter, useClass: MomentDateAdapter, deps: [MAT_DATE_LOCALE, MAT_MOMENT_DATE_ADAPTER_OPTIONS] }</title>
<ellipse fill="#fdb462" stroke="black" cx="1153" cy="-104" rx="563.21" ry="18"/>
<text text-anchor="middle" x="1153" y="-99.8" font-family="Times,serif" font-size="14.00">{ provide: DateAdapter, useClass: MomentDateAdapter, deps: [MAT_DATE_LOCALE, MAT_MOMENT_DATE_ADAPTER_OPTIONS] }</text>
</g>
<!-- { provide: DateAdapter, useClass: MomentDateAdapter, deps: [MAT_DATE_LOCALE, MAT_MOMENT_DATE_ADAPTER_OPTIONS] }&#45;&gt;AppModule -->
<g id="edge38" class="edge">
<title>{ provide: DateAdapter, useClass: MomentDateAdapter, deps: [MAT_DATE_LOCALE, MAT_MOMENT_DATE_ADAPTER_OPTIONS] }&#45;&gt;AppModule</title>
<path fill="none" stroke="black" d="M1716.36,-104C1722.19,-104 1725.35,-104 1725.35,-104 1725.35,-104 1725.35,-184 1725.35,-184 1725.35,-184 3956.92,-184 3956.92,-184"/>
<polygon fill="black" stroke="black" points="3956.92,-187.5 3966.92,-184 3956.92,-180.5 3956.92,-187.5"/>
</g>
<!-- { provide: MAT_DATE_FORMATS, useValue: MY_FORMATS } -->
<g id="node39" class="node">
<title>{ provide: MAT_DATE_FORMATS, useValue: MY_FORMATS }</title>
<ellipse fill="#fdb462" stroke="black" cx="298" cy="-104" rx="274.06" ry="18"/>
<text text-anchor="middle" x="298" y="-99.8" font-family="Times,serif" font-size="14.00">{ provide: MAT_DATE_FORMATS, useValue: MY_FORMATS }</text>
</g>
<!-- { provide: MAT_DATE_FORMATS, useValue: MY_FORMATS }&#45;&gt;AppModule -->
<g id="edge39" class="edge">
<title>{ provide: MAT_DATE_FORMATS, useValue: MY_FORMATS }&#45;&gt;AppModule</title>
<path fill="none" stroke="black" d="M298,-122.2C298,-146.36 298,-186 298,-186 298,-186 3957.32,-186 3957.32,-186"/>
<polygon fill="black" stroke="black" points="3957.32,-189.5 3967.32,-186 3957.32,-182.5 3957.32,-189.5"/>
</g>
</g>
</svg>
